<?xml version="1.0" standalone="no"?>
<!DOCTYPE svg PUBLIC "-//W3C//DTD SVG 20010904//EN"
 "http://www.w3.org/TR/2001/REC-SVG-20010904/DTD/svg10.dtd">
<svg version="1.0" xmlns="http://www.w3.org/2000/svg"
 width="256.000000pt" height="256.000000pt" viewBox="0 0 256.000000 256.000000"
 preserveAspectRatio="xMidYMid meet">
<metadata>
Created by potrace 1.11, written by Peter Selinger 2001-2013
</metadata>
<g transform="translate(0.000000,256.000000) scale(0.100000,-0.100000)"
fill="#000000" stroke="none">
<path d="M0 1280 l0 -1280 1280 0 1280 0 0 1280 0 1280 -1280 0 -1280 0 0
-1280z m1192 265 l3 -376 355 370 355 370 80 1 79 0 -65 -67 c-143 -146 -479
-506 -478 -512 0 -3 130 -159 288 -346 l287 -340 -69 -3 c-39 -2 -76 -1 -82 2
-7 2 -126 136 -265 296 l-253 292 -120 -120 c-139 -139 -135 -130 -136 -344
l-1 -128 -70 0 c-68 0 -70 1 -70 24 0 24 -1 24 -27 11 -80 -41 -243 -44 -343
-6 -65 25 -139 77 -169 119 l-21 30 39 43 38 43 49 -50 c71 -72 131 -98 224
-99 88 0 149 28 187 84 l23 34 0 468 0 469 -220 0 -220 0 0 55 0 55 300 0 300
0 2 -375z"/>
</g>
</svg>
